HIERARCHY
ROOT Hips
{
  OFFSET 0 0 0
  CHANNELS 6 Xposition Yposition Zposition Zrotation Yrotation Xrotation
  JOINT LeftThigh
  {
    OFFSET 8.409438 0 -5.917753
    CHANNELS 3 Zrotation Yrotation Xrotation
    JOINT LeftLeg
    {
      OFFSET 0 0 -42.358652
      CHANNELS 3 Zrotation Yrotation Xrotation
      JOINT LeftFoot
      {
        OFFSET 0 0 -39.357303
        CHANNELS 3 Zrotation Yrotation Xrotation
      }
    }
  }
  JOINT RightThigh
  {
    OFFSET -8.409438 0 -5.917753
    CHANNELS 3 Zrotation Yrotation Xrotation
    JOINT RightLeg
    {
      OFFSET 0 0 -42.358652
      CHANNELS 3 Zrotation Yrotation Xrotation
      JOINT RightFoot
      {
        OFFSET 0 0 -39.357303
        CHANNELS 3 Zrotation Yrotation Xrotation
      }
    }
  }
  JOINT SpineLow
  {
    OFFSET 0 0 4.719101
    CHANNELS 3 Zrotation Yrotation Xrotation
    JOINT SpineMid
    {
      OFFSET 0 0 12.899191
      CHANNELS 3 Zrotation Yrotation Xrotation
      JOINT Chest
      {
        OFFSET 0 0 12.899191
        CHANNELS 3 Zrotation Yrotation Xrotation
        JOINT LeftShoulder
        {
          OFFSET 7.550562 1.41573 9.438202
          CHANNELS 3 Zrotation Yrotation Xrotation
          JOINT LeftArm
          {
            OFFSET 9.155056 0 4.247191
            CHANNELS 3 Zrotation Yrotation Xrotation
            JOINT LeftForearm
            {
              OFFSET 0 0 25.771955
              CHANNELS 3 Zrotation Yrotation Xrotation
              JOINT LeftHand
              {
                OFFSET 0 0 25.197169
                CHANNELS 3 Zrotation Yrotation Xrotation
              }
            }
          }
        }
        JOINT RightShoulder
        {
          OFFSET -7.550562 1.41573 9.438202
          CHANNELS 3 Zrotation Yrotation Xrotation
          JOINT RightArm
          {
            OFFSET -9.155056 0 4.247191
            CHANNELS 3 Zrotation Yrotation Xrotation
            JOINT RightForearm
            {
              OFFSET 0 0 -25.771955
              CHANNELS 3 Zrotation Yrotation Xrotation
              JOINT RightHand
              {
                OFFSET 0 0 -25.197169
                CHANNELS 3 Zrotation Yrotation Xrotation
              }
            }
          }
        }
        JOINT Neck
        {
          OFFSET 0 0 15.101124
          CHANNELS 3 Zrotation Yrotation Xrotation
          JOINT Head
          {
            OFFSET 0 0 11.325843
            CHANNELS 3 Zrotation Yrotation Xrotation
            End Site
            {
              OFFSET 0 0 14.157303
            }
          }
        }
      }
    }
  }
}
MOTION
Frames: 14
Frame Time: 0.0
0.0  89.887642  0.0  17.154718  -5.985453  -111.101694  26.499284  12.975217  -69.24953  -16.971112  24.136147  99.562459  2.665146  3.56746  -1.577342  1.456275  13.410047  10.840475  4.450031  5.3111  13.380476  8.290516  3.785144  2.460181  2.16634  0.20602  2.027871  5.93402  0.380709  5.556374  5.93402  0.380709  5.556374  -12.211517  23.716256  8.222165  -178.111741  56.488082  -143.753232  -24.715663  -24.440744  74.019286  72.536748  12.087658  45.642089  -2.227544  2.830348  11.138727  87.665949  43.519747  21.023398  -31.657122  14.17469  -49.952852  76.34939  20.902581  -80.288121  -18.42494  5.497149  -1.587056  -13.793884  4.175204  -1.024211  
0.0  89.887642  0.0  16.665113  -5.349568  -110.579549  25.876637  13.004116  -68.796891  -16.212806  23.771758  99.482789  2.557363  3.53789  -1.601413  1.373488  12.983319  10.647396  4.484732  5.134892  13.551047  8.059757  3.697857  2.481471  2.113711  0.159338  2.009524  5.786294  0.259358  5.501957  5.786294  0.259358  5.501957  -12.267593  23.838876  8.226981  -177.026234  55.93575  -142.843775  -23.312954  -25.995223  74.165655  73.040372  12.118176  46.494688  -2.820537  2.903628  10.816577  87.713978  42.743941  21.175148  -31.537126  13.382799  -50.191345  77.647897  20.85908  -80.010727  -18.755212  5.493107  -1.981247  -14.037942  4.185314  -1.317139  
0.0  89.887642  0.0  16.177852  -4.811154  -110.098488  25.411596  12.888456  -68.281674  -15.473417  23.462703  99.303979  2.417229  3.535345  -1.608119  1.180039  12.541529  10.301228  4.433176  5.032106  13.738591  7.890648  3.676689  2.557224  2.041089  0.115938  1.995033  5.584318  0.148192  5.458547  5.584318  0.148192  5.458547  -12.258133  23.86483  8.065514  -176.195863  55.397264  -142.294543  -22.151283  -27.32612  74.136148  73.968577  12.084605  47.448311  -2.716552  2.982378  10.775877  87.426888  42.106991  21.176554  -31.511904  12.969057  -50.312377  78.740084  20.936424  -79.558957  -18.889084  5.464019  -2.270618  -14.135946  4.172941  -1.53398  
0.0  89.887642  0.0  15.747046  -4.21525  -109.548802  24.997547  12.918212  -67.771467  -14.878595  23.173633  99.082985  2.244914  3.539436  -1.636371  1.265628  12.083003  10.177837  4.108199  4.985111  13.74522  7.822075  3.639459  2.642306  1.985052  0.085037  2.010555  5.428698  0.067214  5.498374  5.428698  0.067214  5.498373  -12.136901  23.775939  7.797019  -175.885066  54.922272  -141.904416  -21.370419  -28.222463  74.076379  75.583286  12.081375  48.588477  -3.091217  3.074539  10.355001  87.536372  41.379436  21.230929  -31.504686  12.917723  -50.424808  79.441573  21.036457  -79.296924  -19.141804  5.37955  -2.733581  -14.322026  4.125125  -1.881839  
0.0  89.887642  0.0  15.355579  -3.762772  -109.0857  24.771706  12.967826  -67.048163  -14.479429  22.834181  98.685195  2.107272  3.549979  -1.648982  0.904796  11.731035  9.771039  4.236144  4.958479  13.833468  7.74616  3.585249  2.743976  1.941319  0.069153  2.02665  5.307912  0.026206  5.541093  5.307912  0.026206  5.541092  -12.044865  23.634201  7.51549  -175.651054  54.519012  -141.724586  -19.944175  -30.327939  73.842558  75.637986  12.578111  49.157229  -3.023843  3.111032  10.231505  87.430317  40.790768  21.22837  -31.713134  13.030107  -50.538576  79.99591  21.075546  -79.224789  -19.322092  5.228326  -3.064565  -14.455675  4.022971  -2.133557  
0.0  89.887642  0.0  15.027263  -3.33607  -108.578154  24.586106  12.983666  -66.078751  -14.140774  22.334028  98.036066  1.889643  3.531465  -1.710064  0.711015  11.37074  9.43984  4.528228  4.903877  13.924154  7.57019  3.499591  2.765025  1.928726  0.05709  2.049075  5.272464  -0.007447  5.601397  5.272464  -0.007447  5.601397  -12.056344  23.502881  7.222973  -175.41526  54.130022  -141.570044  -19.589302  -31.391978  74.08292  76.777613  13.148342  50.576314  -3.321744  3.179943  9.967056  87.478925  40.199047  21.288376  -32.013766  13.041428  -50.702169  80.612573  21.216015  -79.180481  -19.602973  5.068652  -3.443372  -14.66459  3.916816  -2.420749  
0.0  89.887642  0.0  14.708214  -2.966377  -108.098765  24.623678  13.303615  -65.392153  -14.077866  22.009403  97.654872  1.733121  3.559608  -1.731841  0.472451  11.060202  9.020064  4.662428  4.819487  13.958995  7.438487  3.500159  2.837293  1.931675  0.043429  2.059108  5.279337  -0.045779  5.627705  5.279337  -0.045779  5.627705  -12.053072  23.402014  7.068334  -175.487571  53.838287  -141.465946  -20.337989  -30.878079  74.094796  79.85116  13.127142  52.589858  -3.378868  3.251188  9.973379  87.25796  39.702989  21.253711  -32.436294  12.927087  -50.86817  81.387817  21.282826  -79.080587  -19.910119  4.911464  -3.714636  -14.894209  3.809535  -2.627131  
0.0  89.887642  0.0  14.421056  -2.598864  -107.616822  24.684766  13.639539  -64.721792  -13.998043  21.592971  97.313112  1.548927  3.577917  -1.763763  0.563493  10.669831  8.776338  4.489913  4.843035  13.898251  7.292864  3.5048  2.876534  1.958654  0.031264  2.068456  5.351958  -0.082032  5.652188  5.351957  -0.082032  5.652188  -12.146908  23.287629  6.94717  -175.498912  53.500461  -141.460277  -21.260965  -30.248505  74.304277  82.955216  12.885046  54.743812  -3.751731  3.248479  9.905995  87.011153  39.237259  21.285034  -32.792009  12.565692  -51.102251  82.360197  21.140963  -79.173735  -20.256851  4.772542  -3.975266  -15.153542  3.716163  -2.8248  
0.0  89.887642  0.0  14.164313  -2.163613  -107.10437  24.675474  13.991438  -63.907869  -13.946963  21.20439  96.732066  1.499197  3.614252  -1.730392  0.398344  10.424414  8.375023  4.4216  4.843353  13.830531  7.210637  3.442673  2.933951  1.982221  0.024433  2.075192  5.415716  -0.103238  5.669955  5.415716  -0.103238  5.669954  -12.254095  23.187522  6.83192  -175.589311  53.149352  -141.374545  -21.611745  -30.624499  74.406917  85.022902  12.80796  56.641982  -3.905665  3.321907  9.928329  86.384189  38.858155  21.098914  -33.141422  11.976244  -51.319036  83.459819  20.555365  -79.544503  -20.682357  4.601153  -4.209977  -15.472589  3.598405  -3.003765  
0.0  89.887642  0.0  13.926458  -1.651578  -106.535367  24.600063  14.24123  -63.199786  -13.738635  20.814285  96.228324  1.450809  3.651249  -1.710484  0.163716  10.21222  7.924599  4.327778  4.816154  13.714505  7.133986  3.421303  2.986184  1.9893  0.018506  2.070901  5.434557  -0.119667  5.657726  5.434557  -0.119667  5.657726  -12.309396  23.128754  6.760341  -175.560894  52.653994  -141.24721  -21.242066  -32.007576  74.650134  86.069152  12.701598  58.223858  -4.14273  3.325546  9.902907  85.889566  38.495999  21.062638  -33.486069  11.136364  -51.545734  84.83135  19.919845  -79.991662  -21.027237  4.460215  -4.433541  -15.73108  3.502825  -3.174108  
0.0  89.887642  0.0  13.662507  -1.12943  -105.967615  24.439966  14.415084  -62.18625  -13.595647  20.27264  95.359732  1.384296  3.685282  -1.685289  -0.039646  10.040317  7.433282  4.229557  4.718449  13.681544  7.030562  3.418171  3.025179  2.002744  0.008527  2.071094  5.470424  -0.148063  5.657379  5.470424  -0.148063  5.657379  -12.401461  23.025895  6.710038  -175.844085  52.119118  -141.173937  -20.825275  -33.775809  74.909567  86.892547  12.484017  59.901016  -4.285705  3.43748  9.838029  85.243615  38.130829  20.89248  -33.918184  10.20825  -51.752934  86.396043  19.351755  -80.338111  -21.461656  4.288164  -4.662225  -16.057126  3.385031  -3.349008  
0.0  89.887642  0.0  13.423907  -0.531691  -105.348578  24.335788  14.575522  -61.596991  -13.319232  19.855325  94.931649  1.243845  3.728482  -1.678806  -0.36991  9.855933  6.831073  4.273318  4.72006  13.728635  6.82664  3.401651  3.006287  1.979606  0.015958  2.048229  5.40795  -0.123937  5.595628  5.40795  -0.123937  5.595628  -12.280014  22.833385  6.762593  -176.228412  51.577502  -141.251571  -20.386759  -35.641554  75.232857  87.688399  11.715186  61.501277  -4.425626  3.384211  9.79525  84.876943  37.778563  20.987869  -34.365868  9.271325  -52.042811  87.895513  18.82287  -80.646424  -21.734884  4.122662  -4.822096  -16.262815  3.268649  -3.473291  
0.0  89.887642  0.0  13.178943  0.038203  -104.776514  24.233655  14.654799  -60.733353  -13.078923  19.416293  94.227114  1.059085  3.770853  -1.673852  -0.530851  9.687471  6.319567  4.102423  4.678465  13.71737  6.721628  3.362784  3.03048  1.993745  0.017336  2.059197  5.446641  -0.122274  5.625646  5.446641  -0.122274  5.625646  -12.42598  22.574201  6.622894  -176.63431  51.092316  -141.447772  -19.94992  -37.345671  75.713284  88.39415  10.95159  62.755365  -4.606082  3.428866  9.627395  84.420013  37.42281  20.967807  -34.943667  8.506627  -52.389649  89.112539  18.235723  -80.957991  -22.190529  3.894971  -5.089721  -16.605441  3.11119  -3.679873  
0.0  89.887642  0.0  12.971921  0.769133  -104.080869  24.039546  14.805  -60.040762  -12.722389  18.951337  93.724682  0.934366  3.803254  -1.631232  -0.96547  9.620033  5.568166  3.974345  4.585084  13.779438  6.700459  3.360588  3.081429  1.972789  0.035926  2.04505  5.391028  -0.068609  5.588595  5.391028  -0.068609  5.588594  -12.460121  22.228799  6.510991  -177.097369  50.613131  -141.785454  -19.593807  -38.741095  76.337968  89.04789  10.211898  63.736142  -5.120258  3.345887  9.270114  84.272599  36.977693  21.231606  -35.339374  7.733192  -53.005255  89.972107  17.435498  -81.457174  -22.561967  3.664875  -5.345059  -16.885223  2.951077  -3.878155  
